PathFileType	4	(X/Y/Z)	pose_F01_0-82.trc
DataRate	CameraRate	NumFrames	NumMarkers	Units	OrigDataRate	OrigDataStartFrame	OrigNumFrames
30	30	8	21	m	30	0	82
Frame#	Time	CHip			RHip			RKnee			RAnkle			RBigToe			RSmallToe			RHeel			LHip			LKnee			LAnkle			LBigToe			LSmallToe			LHeel			Neck			Nose			RShoulder			RElbow			RWrist			LShoulder			LElbow			LWrist			
		X1	Y1	Z1	X2	Y2	Z2	X3	Y3	Z3	X4	Y4	Z4	X5	Y5	Z5	X6	Y6	Z6	X7	Y7	Z7	X8	Y8	Z8	X9	Y9	Z9	X10	Y10	Z10	X11	Y11	Z11	X12	Y12	Z12	X13	Y13	Z13	X14	Y14	Z14	X15	Y15	Z15	X16	Y16	Z16	X17	Y17	Z17	X18	Y18	Z18	X19	Y19	Z19	X20	Y20	Z20	X21	Y21	Z21	
0	0.0	-0.2727273085830115	1.8322794807526204	-0.5088930118573877	-0.2825247146490824	1.82837176957596	-0.4448803338633051	-0.28355851720086234	1.7002637156416123	-0.42639548035220565	-0.28280967987777944	1.5718493298585186	-0.41331390958609476	-0.2550062334142661	1.5396423478347487	-0.44383822319134486	-0.26501117701263677	1.5397125724141432	-0.4002341302504941	-0.28698690757951384	1.5609419784378216	-0.4115400414054808	-0.2580930621023845	1.8339721044777526	-0.5801175720472351	-0.2385666178342254	1.7140961755951218	-0.5955011074551914	-0.26642431102293823	1.5893010718140426	-0.5776459142175462	-0.23927288650259393	1.5611985883242616	-0.638167560752015	-0.2413677561070439	1.5653181082589653	-0.6446081070102745	-0.2761172292000508	1.5725454399924437	-0.5606538423328303	-0.27124397129847877	1.98274015040812	-0.5370076095647324	-0.24147970702044802	2.0407467603852645	-0.5720768833949056	-0.2783138741795984	1.97877717060617	-0.4424361428046815	-0.2948911843533013	1.9123359881414066	-0.3789854655067318	-0.257729185450809	1.9001443247732517	-0.36741497907245374	-0.2607022026064161	1.9853943466731092	-0.6196580446451986	-1.9501833766157035	1.771293028557076	1.0400051501232581	0.5894205047680336	1.9857987772969863	-1.6341831001014087
1	0.03333333333333333	-0.2709971990692437	1.8303890284399669	-0.5228672492398815	-0.2818619490480911	1.8274360354493902	-0.4536718546888602	-0.2816579450686818	1.6996397695212613	-0.43737233265224057	-0.28406071457662885	1.5728806063340977	-0.41635521375735185	-0.2537683653801277	1.5388891131968565	-0.44059941627799926	-0.26297676172239454	1.5391173022290527	-0.40226771517298104	-0.28822951730138	1.5613232943318742	-0.41486975003223875	-0.25961163212722826	1.8329922326074926	-0.5866711426085112	-0.250071182642724	1.7099630193759734	-0.5960102606689738	-0.2698533836507375	1.591431407186195	-0.5872083654694383	-0.24054153984439244	1.5626033685717193	-0.6411094274598006	-0.24434142566620762	1.5683965177236199	-0.6544654082165925	-0.2793482795306372	1.5786182510999114	-0.5713733731309555	-0.2731373876590007	1.9829822308380587	-0.5434346034821108	-0.24141372039191356	2.0410479829528025	-0.5804863183195174	-0.27957738324381176	1.9791250969273435	-0.4541993821664301	-0.29553180185401856	1.907697069493131	-0.3953466145804083	-0.25975979531265175	1.8933879614117133	-0.39622846728145195	-0.2604647971274774	1.9856137454699714	-0.6279953583872693	-1.106926442014579	1.8433912967115258	0.18661372308246513	-0.219210353211042	1.8979991649324683	-0.792377577229438
2	0.06666666666666667	-0.2692670895554759	1.8284985761273134	-0.5368414866223753	-0.28119918344709977	1.8265003013228203	-0.46246337551441524	-0.27975737293650127	1.6990158234009103	-0.4483491849522755	-0.28531174927547825	1.5739118828096768	-0.41939651792860894	-0.2525304973459893	1.5381358785589643	-0.43736060936465365	-0.2609423464321523	1.5385220320439623	-0.404301300095468	-0.2894721270232462	1.5617046102259269	-0.4181994586589967	-0.26113020215207206	1.8320123607372325	-0.5932247131697872	-0.2615757474512226	1.705829863156825	-0.5965194138827562	-0.2732824562785368	1.5935617425583475	-0.5967708167213305	-0.24181019318619096	1.564008148819177	-0.6440512941675862	-0.24731509522537135	1.5714749271882744	-0.6643227094229105	-0.2825793298612236	1.584691062207379	-0.5820929039290806	-0.2750308040195226	1.9832243112679975	-0.5498615973994893	-0.2413477337633791	2.0413492055203406	-0.5888957532441291	-0.2808408923080251	1.979473023248517	-0.46596262152817863	-0.2961724193547358	1.9030581508448554	-0.41170776365408485	-0.26179040517449453	1.8866315980501749	-0.42504195549045015	-0.2602273916485387	1.9858331442668335	-0.63633267212934	-0.2636695074134546	1.9154895648659755	-0.6667777039583279	-1.0278412111901176	1.8101995525679504	0.04942794564253276
3	0.1	-0.26930681162958614	1.8331904101667658	-0.5463811675878496	-0.2805020239281887	1.8284441561820082	-0.48557207061875934	-0.27563861574217685	1.703444728666003	-0.4624768800757822	-0.2834110558404794	1.5740393371094978	-0.4215676251540984	-0.2553950715186426	1.5395226154741264	-0.4391353456915454	-0.26264260765323755	1.5395757767944451	-0.402888410435897	-0.2889866649086739	1.567650697236123	-0.419703270014307	-0.26315009269106954	1.8348964925976614	-0.6086038893311625	-0.2671141153900406	1.7075886263567934	-0.5955186744407253	-0.2735533045998514	1.5922446751562098	-0.5962353554289158	-0.24166210510968006	1.5634189192044283	-0.6440254093211034	-0.246488967729968	1.5693798903613372	-0.6606288029544826	-0.28024753600957114	1.5807878715323014	-0.5792764347238062	-0.27090925410766087	1.9836703621909935	-0.5628126071208631	-0.24302958354001727	2.0417093058553366	-0.5952778107787196	-0.28094699288387315	1.9811724604890135	-0.4750962618189897	-0.29091555687137155	1.907782089934567	-0.42796646943806677	-0.2574632042563422	1.8865198524989706	-0.4611102312240818	-0.26094432194505224	1.9874854811731073	-0.6482541648545685	-0.2622449525241203	1.9192718003398646	-0.672578783081833	-0.22911419631048116	1.8809516589653468	-0.7382225928761774
4	0.13333333333333333	-0.2710365348262217	1.8349736576904039	-0.5616573569400708	-0.2765631101809619	1.8317854311870663	-0.49912472599391583	-0.27719449419619274	1.7095039225368927	-0.47499604838815096	-0.2829369132691298	1.574261378380193	-0.42218182118052844	-0.25498613092132544	1.5401188633852818	-0.43960635419870125	-0.26211806041654473	1.5418862418390848	-0.40394798176180624	-0.2896152568183218	1.5679995571507335	-0.42347124874384906	-0.2627871441183271	1.8363582515952552	-0.6174793621315853	-0.26799680762360517	1.709993108098318	-0.5990483440915361	-0.2742041768486477	1.5932302492137735	-0.5999834901638456	-0.2429595209311099	1.5655390860087304	-0.646896245170878	-0.24774778197681574	1.5712415180437156	-0.6635539791821379	-0.2778734952019401	1.5795344870043788	-0.5817288222999444	-0.26681917446630127	1.983944886743581	-0.5756227259500609	-0.24178348829854224	2.0420717337086884	-0.6088336506118861	-0.2791108673328281	1.9798841740794189	-0.48524464538684736	-0.2910062054231681	1.9063670881694827	-0.4362428704062877	-0.2512595111817398	1.892361891973606	-0.49485023838012865	-0.2595389066032552	1.9867648537548632	-0.6619698871415399	-0.26094515976363264	1.9189747259716352	-0.6864280608790135	-1.0467682452573934	1.8219119691064316	0.07309206300849792
5	0.16666666666666666	-0.2730737418368223	1.8321401337350531	-0.5679565617262026	-0.2796099155275871	1.8279163638475289	-0.5083828090808727	-0.27794848038384806	1.7036100050088097	-0.47787824030333514	-0.28289981741959835	1.5739337448173767	-0.4222313264382504	-0.25530926651047253	1.5420521552412083	-0.43947738239213524	-0.26267582944054857	1.5425556116037917	-0.40327123528621306	-0.2896877625674143	1.5654235226630713	-0.4231750451129682	-0.26335765975885184	1.8352912440102762	-0.6290807702936726	-0.2691877987942624	1.7078661661282424	-0.6020546749043689	-0.2741846098903054	1.590281144678754	-0.5997706462785546	-0.24240004178385793	1.5652532012463924	-0.6478978215488779	-0.2469612592478827	1.5697680473046438	-0.6644651821960755	-0.2757242161648333	1.5789584768086238	-0.5840512979995794	-0.2697291857799819	1.9831043647193483	-0.5851918525485977	-0.23833756347994467	2.041499632583475	-0.624750102548889	-0.2820919460731619	1.9800595947519668	-0.4949204406893436	-0.294761059720965	1.8983829439208835	-0.4390585895503511	-0.2501521110337354	1.899441260256346	-0.5101923357222183	-0.25491952259000766	1.9871389056124795	-0.6747538626068879	-0.25966114123606515	1.921698233134813	-0.6923097609509002	-0.22302623724919216	1.902413071049636	-0.7624259992235223
6	0.2	-0.2729173216155084	1.834955713238101	-0.5769828521365961	-0.2806017148969431	1.8308463105280772	-0.5208249324729429	-0.27897800277692525	1.7039857644126295	-0.4814387470201711	-0.2840917770597969	1.5745900591547959	-0.42550312999771783	-0.25279846257629385	1.5418006099434167	-0.4424337292820379	-0.26233224972618996	1.5437041033758068	-0.4039342087451325	-0.29012340977769374	1.5677869618941775	-0.42306195259338847	-0.26412137983457634	1.836615040188891	-0.6410528714188741	-0.2709042131260361	1.7092945851517838	-0.6089572482775438	-0.27404419201480623	1.591808119804	-0.600326122369014	-0.2428319925811372	1.5672518300477003	-0.6476675491793651	-0.2477594626271054	1.5716752231206956	-0.6681339631945783	-0.2792674408868576	1.578189504017239	-0.5803307118589962	-0.2685643626613932	1.9830456357183384	-0.5901547788423898	-0.23718394927846323	2.041628571119569	-0.6301354319422149	-0.2822654297835934	1.9779455457648323	-0.5029241312131951	-0.29497326505043336	1.8968666675699963	-0.44730733492766467	-0.25422481530646496	1.9068080709665083	-0.524442377461699	-0.2535879729608466	1.9871024622337843	-0.6798479086300355	-0.2640830519604728	1.9211324328735242	-0.6989838516295565	-0.22358953077464733	1.9102546117166121	-0.7665468840374174
7	0.23333333333333334	-0.2716503635858788	1.8338149349905803	-0.5822674363945686	-0.2812887083175954	1.8321460087890111	-0.5243209722908485	-0.27788548105686967	1.70558067721866	-0.48718614768343743	-0.2820867484029193	1.5743037568967484	-0.4276698757109525	-0.25488530780332497	1.544578967727538	-0.4495128149573726	-0.26134711283217793	1.5453206824781205	-0.40998270923217905	-0.28796166174702237	1.5660854901598584	-0.4253337242199082	-0.259598417605523	1.8366237055315155	-0.6457266871595846	-0.27111865531396095	1.7098305498338433	-0.613077325733183	-0.2748945417851519	1.5911824966260386	-0.6034978442963381	-0.24238151065435204	1.5646574557753312	-0.647888753825321	-0.24788014705965164	1.5695682573393743	-0.6675462659515812	-0.2800206014927775	1.582564472967086	-0.5842277619549476	-0.2704052481984628	1.983250175461638	-0.5964272990549219	-0.23808596337188945	2.041701898015983	-0.6332923613535393	-0.2813447969102709	1.979526617435069	-0.5088129774221002	-0.29498787984237773	1.8983853827530355	-0.44765915263468414	-0.25792555775420756	1.9146309263051482	-0.5383998051346628	-0.2562730048533056	1.9874782287350914	-0.6890618815329932	-0.2642059328197475	1.9230934469042975	-0.6993101385198306	-0.23187407082215067	1.9152166179766923	-0.7465019588563988
